<svg xmlns="http://www.w3.org/2000/svg" viewBox="0 0 512 512">
  <!-- 背景圆形 -->
  <circle cx="256" cy="256" r="256" fill="#5c6b5c"/>

  <!-- 书本图标 -->
  <g transform="translate(128, 128)">
    <!-- 书本底色 -->
    <rect x="20" y="40" width="216" height="160" rx="8" fill="#f5f0eb"/>

    <!-- 书脊 -->
    <rect x="124" y="40" width="8" height="160" fill="#8da892"/>

    <!-- 左页文字线 -->
    <line x1="40" y1="70" x2="108" y2="70" stroke="#5c6b5c" stroke-width="4" stroke-linecap="round"/>
    <line x1="40" y1="95" x2="108" y2="95" stroke="#5c6b5c" stroke-width="4" stroke-linecap="round"/>
    <line x1="40" y1="120" x2="108" y2="120" stroke="#5c6b5c" stroke-width="4" stroke-linecap="round"/>
    <line x1="40" y1="145" x2="90" y2="145" stroke="#5c6b5c" stroke-width="4" stroke-linecap="round"/>

    <!-- 右页文字线 -->
    <line x1="148" y1="70" x2="216" y2="70" stroke="#5c6b5c" stroke-width="4" stroke-linecap="round"/>
    <line x1="148" y1="95" x2="216" y2="95" stroke="#5c6b5c" stroke-width="4" stroke-linecap="round"/>
    <line x1="148" y1="120" x2="216" y2="120" stroke="#5c6b5c" stroke-width="4" stroke-linecap="round"/>
    <line x1="148" y1="145" x2="198" y2="145" stroke="#5c6b5c" stroke-width="4" stroke-linecap="round"/>

    <!-- 书签 -->
    <rect x="180" y="50" width="24" height="50" fill="#d4ddd4"/>
    <polygon points="180,100 192,110 204,100" fill="#d4ddd4"/>
  </g>

  <!-- 装饰性星星 -->
  <circle cx="80" cy="100" r="6" fill="#b3c2b3" opacity="0.6"/>
  <circle cx="432" cy="140" r="4" fill="#b3c2b3" opacity="0.6"/>
  <circle cx="100" cy="400" r="5" fill="#b3c2b3" opacity="0.6"/>
  <circle cx="420" cy="380" r="7" fill="#b3c2b3" opacity="0.6"/>
</svg>
